<svg version="1.2" xmlns="http://www.w3.org/2000/svg" viewBox="0 0 700 700" width="700" height="700">
	<title>noun-multiply-982665-svg</title>
	<style>
		.s0 { fill: #B9EDDD } 
	</style>
	<g id="Layer">
		<path id="Layer" fill-rule="evenodd" class="s0" d="m213.9 168.6l24.7-24.7c13.7-13.7 38.4-11.1 49.5 0l198 198c13.7 13.6 13.7 35.8 0 49.5l-24.7 24.7c-13.7 13.7-38.5 11.1-49.5 0l-198-198c-13.7-13.6-13.7-35.8 0-49.5z"/>
		<path id="Layer" fill-rule="evenodd" class="s0" d="m213.9 341.9l198-198c13.6-13.7 38.4-11.1 49.5 0l24.7 24.7c13.7 13.7 13.7 35.9 0 49.5l-198 198c-13.6 13.7-38.4 11.1-49.5 0l-24.7-24.7c-13.7-13.7-13.7-35.9 0-49.5z"/>
	</g>
</svg>