<svg version="1.2" xmlns="http://www.w3.org/2000/svg" viewBox="0 0 700 700" width="700" height="700">
	<title>noun-bullet-point-4084284-svg</title>
	<style>
		.s0 { fill: #000000 } 
	</style>
	<g id="Layer">
		<path id="Layer" class="s0" d="m251.6 209.3c-18.2-18.1-42.8-28.3-68.4-28.3-25.7 0-50.2 10.2-68.4 28.3l-2.2 2.2c-22.4 24.8-30.3 59.4-21.2 91.4 9.2 32.1 34.3 57.2 66.3 66.5 32.1 9.2 66.6 1.3 91.5-20.9l2.2-2.3c18.2-18.1 28.4-42.7 28.5-68.4 0-25.7-10.2-50.3-28.3-68.5zm27.7-27.7v-0.1c18.1 18.2 42.8 28.4 68.5 28.4 25.6 0 50.3-10.2 68.4-28.4l2.3-2.2c18.1-18.2 28.3-42.8 28.3-68.5 0-25.7-10.2-50.3-28.3-68.5-18.2-18.1-42.8-28.3-68.5-28.3-25.7 0-50.3 10.2-68.5 28.3l-2.2 2.3c-18.2 18.1-28.4 42.8-28.4 68.5 0 25.6 10.2 50.3 28.4 68.5zm141.4 196.8c-18.1-18.1-42.8-28.3-68.5-28.3-25.6 0-50.3 10.2-68.4 28.3l-2.3 2.3c-18.1 18.1-28.3 42.8-28.3 68.5 0 25.7 10.2 50.3 28.3 68.5 18.2 18.1 42.8 28.3 68.5 28.3 25.7 0 50.3-10.2 68.5-28.3l2.2-2.3c18.2-18.2 28.4-42.8 28.4-68.5 0-25.7-10.2-50.3-28.4-68.5zm167-166.9c-18.2-18.2-42.8-28.4-68.5-28.4-25.7 0-50.3 10.2-68.5 28.4l-2.2 2.2c-18.2 18.2-28.4 42.8-28.4 68.5 0 25.7 10.2 50.4 28.4 68.5 18.1 18.2 42.8 28.4 68.4 28.4 25.7 0 50.4-10.2 68.5-28.4l2.3-2.2c18.1-18.2 28.3-42.8 28.3-68.5 0-25.7-10.2-50.3-28.3-68.5z"/>
	</g>
</svg>