<?xml version="1.0" encoding="UTF-8"?>
<svg width="100px" height="125px" viewBox="0 0 100 125" xmlns="http://www.w3.org/2000/svg" xmlns:xlink="http://www.w3.org/1999/xlink" version="1.1">
 <!-- Generated by Pixelmator Pro 2.2 -->
 <path id="Path" d="M71.72 43.9 C71.709 40.965 70.696 38.122 68.85 35.84 69.477 33.231 69.281 30.493 68.29 28 68.095 27.52 67.695 27.153 67.2 27 66.5 26.76 63.85 26.31 58.45 29.81 56.128 29.197 53.732 28.908 51.33 28.95 48.925 28.907 46.526 29.197 44.2 29.81 38.66 26.23 35.78 26.81 35.2 26.98 34.703 27.14 34.303 27.514 34.11 28 33.116 30.485 32.914 33.216 33.53 35.82 31.623 38.09 30.607 40.976 30.67 43.94 30.67 55 37 58.34 42.8 59.52 42.502 60.248 42.297 61.011 42.19 61.79 42.18 61.873 42.18 61.957 42.19 62.04 L42.19 65.1 C36.91 65.54 35.78 62.45 35.67 62.1 35.644 62.018 35.614 61.938 35.58 61.86 34.56 59.779 32.765 58.182 30.58 57.41 29.987 57.212 29.333 57.345 28.865 57.759 28.397 58.174 28.185 58.807 28.31 59.419 28.435 60.032 28.877 60.532 29.47 60.73 30.681 61.167 31.691 62.031 32.31 63.16 33.01 65.43 35.87 69.02 42.17 68.62 L42.17 71.5 C42.17 72.125 42.504 72.703 43.045 73.016 43.586 73.328 44.254 73.328 44.795 73.016 45.336 72.703 45.67 72.125 45.67 71.5 L45.67 62.17 C45.803 61.151 46.246 60.198 46.94 59.44 47.436 58.975 47.617 58.264 47.402 57.619 47.187 56.975 46.616 56.514 45.94 56.44 39.84 55.73 34.2 53.72 34.2 43.87 34.118 41.466 35.046 39.138 36.76 37.45 37.224 36.95 37.378 36.236 37.16 35.59 36.571 33.878 36.532 32.025 37.05 30.29 39.197 30.775 41.214 31.72 42.96 33.06 43.415 33.361 43.981 33.438 44.5 33.27 46.722 32.594 49.038 32.28 51.36 32.34 53.678 32.28 55.992 32.594 58.21 33.27 58.728 33.44 59.296 33.362 59.75 33.06 61.432 31.771 63.357 30.836 65.41 30.31 65.92 32.064 65.874 33.933 65.28 35.66 65.081 36.247 65.21 36.895 65.62 37.36 67.276 39.128 68.213 41.448 68.25 43.87 68.25 53.7 62.32 55.74 56.51 56.44 55.798 56.519 55.207 57.027 55.022 57.718 54.836 58.41 55.093 59.145 55.67 59.57 56.29 60.04 57.01 61.36 57.01 63.57 L57.01 71.49 C57.01 72.115 57.344 72.693 57.885 73.006 58.426 73.318 59.094 73.318 59.635 73.006 60.176 72.693 60.51 72.115 60.51 71.49 L60.51 63.57 C60.528 62.177 60.273 60.795 59.76 59.5 64.46 58.5 71.72 55.41 71.72 43.9 Z" fill="#000000" fill-opacity="1" stroke="none"/>
</svg>
