<svg version="1.2" xmlns="http://www.w3.org/2000/svg" viewBox="0 0 700 700" width="700" height="700">
	<title>noun-multiply-2571239-svg</title>
	<style>
		.s0 { fill: #577D86 } 
	</style>
	<g id="Layer">
		<path id="Layer" fill-rule="evenodd" class="s0" d="m582.7 47.3c23.1 23.1 36.1 54.4 36.1 87.1v291.2c0 32.7-13 64-36.1 87.1-23.1 23.1-54.4 36.1-87.1 36.1h-291.2c-32.7 0-64-13-87.1-36.1-23.1-23.1-36.1-54.4-36.1-87.1v-291.2c0-32.7 13-64 36.1-87.1 23.1-23.1 54.4-36.1 87.1-36.1h291.2c32.7 0 64 13 87.1 36.1zm-182.3 232.7l78.4-78.4c2-1.9 3.1-4.5 3.1-7.3 0-2.8-1.1-5.4-3.1-7.3l-36.1-35.5c-1.9-1.9-4.4-3-7.1-3-2.7 0-5.3 1.1-7.2 3l-78.4 78.4-78.4-78.7c-1.9-2-4.5-3.1-7.3-3.1-2.8 0-5.4 1.1-7.3 3.1l-35.8 36.1c-1.9 1.9-3 4.4-3 7.1 0 2.7 1.1 5.3 3 7.2l78.7 78.4-78.7 78.7c-1.9 1.9-3 4.5-3 7.1 0 2.7 1.1 5.3 3 7.2l36.1 35.8c1.9 1.9 4.4 3 7.1 3 2.7 0 5.3-1.1 7.2-3l78.7-78.4 78.4 78.4c1.9 1.9 4.5 3 7.1 3 2.7 0 5.3-1.1 7.2-3l35.8-35.8c1.9-1.9 3-4.5 3-7.2 0-2.6-1.1-5.2-3-7.1z"/>
	</g>
</svg>