<svg version="1.2" xmlns="http://www.w3.org/2000/svg" viewBox="0 0 700 700" width="700" height="700">
	<title>noun-square-3140064-svg</title>
	<style>
		.s0 { fill: #3F979B } 
	</style>
	<g id="Layer">
		<path id="Layer" fill-rule="evenodd" class="s0" d="m565 65c5.8 5.8 9 13.6 9 21.8v386.4c0 8.2-3.2 16-9 21.8-5.8 5.8-13.6 9-21.8 9h-386.4c-8.2 0-16-3.2-21.8-9-5.8-5.8-9-13.6-9-21.8v-386.4c0-8.2 3.2-16 9-21.8 5.8-5.8 13.6-9 21.8-9h386.4c8.2 0 16 3.2 21.8 9zm-145 175.8c0-8.2-3.2-16-9-21.8-5.8-5.8-13.6-9-21.8-9h-78.4c-8.2 0-16 3.2-21.8 9-5.8 5.8-9 13.6-9 21.8v78.4c0 8.2 3.2 16 9 21.8 5.8 5.8 13.6 9 21.8 9h78.4c8.2 0 16-3.2 21.8-9 5.8-5.8 9-13.6 9-21.8z"/>
	</g>
</svg>